# xmcd
#
# Track frame offsets:
#	150
#	24091
#	42904
#	61958
#	88094
#	110603
#	132929
#	151528
#	172331
#	192114
#	212517
#	234595
#
# Disc length: 3415 seconds
#
# Revision: 0
# Processed by: cddbd v1.5.2PL0 Copyright (c) Steve Scherf et al.
# Submitted via: EasyCDDAExtractor 11.9.9.666
#
DISCID=970d550c
DTITLE=Flordelis - Fogo e Unção
DYEAR=2010
DGENRE=Gospel
TTITLE0=Deus No Controle
TTITLE1=Essência de Adorador
TTITLE2=Fogo e Unção (Oleiro)
TTITLE3=Amigo Fiel
TTITLE4=Divisa de Fogo
TTITLE5=Recâmara do Rei
TTITLE6=Por Que Desistir? Vai!
TTITLE7=A Minha Família é de Jeová
TTITLE8=Deus Mudou a Minha História
TTITLE9=Celebre
TTITLE10=Vaso Novo
TTITLE11=As Quatro Estações
EXTD=
EXTT0=
EXTT1=
EXTT2=
EXTT3=
EXTT4=
EXTT5=
EXTT6=
EXTT7=
EXTT8=
EXTT9=
EXTT10=
EXTT11=
PLAYORDER=
